<mxfile host="app.diagrams.net" modified="2023-11-24T16:25:45.603Z" agent="Mozilla/5.0 (Windows NT 10.0; Win64; x64; rv:120.0) Gecko/20100101 Firefox/120.0" etag="k6frdLl-KiQ2uMIZLAXN" version="22.1.3" type="device">
  <diagram name="Page-1" id="iK5-jE9LO6CwZinZ9UqD">
    <mxGraphModel dx="1105" dy="596" grid="1" gridSize="10" guides="1" tooltips="1" connect="1" arrows="1" fold="1" page="1" pageScale="1" pageWidth="850" pageHeight="1100" math="0" shadow="0">
      <root>
        <mxCell id="0" />
        <mxCell id="1" parent="0" />
        <mxCell id="TKxMJ3lpff_DdQ6PI0vP-1" value="&lt;div align=&quot;left&quot;&gt;&lt;b&gt;sensors and actuators&lt;/b&gt;&lt;br&gt;&lt;/div&gt;" style="text;html=1;strokeColor=none;fillColor=none;align=left;verticalAlign=middle;whiteSpace=wrap;rounded=0;" parent="1" vertex="1">
          <mxGeometry x="90" y="80" width="150" height="30" as="geometry" />
        </mxCell>
        <mxCell id="TKxMJ3lpff_DdQ6PI0vP-2" value="&lt;div align=&quot;left&quot;&gt;humidity: sensor&lt;/div&gt;" style="text;html=1;strokeColor=none;fillColor=none;align=left;verticalAlign=middle;whiteSpace=wrap;rounded=0;" parent="1" vertex="1">
          <mxGeometry x="90" y="110" width="110" height="30" as="geometry" />
        </mxCell>
        <mxCell id="TKxMJ3lpff_DdQ6PI0vP-3" value="&lt;div align=&quot;left&quot;&gt;water control: actuator&lt;/div&gt;" style="text;html=1;strokeColor=none;fillColor=none;align=left;verticalAlign=middle;whiteSpace=wrap;rounded=0;" parent="1" vertex="1">
          <mxGeometry x="90" y="130" width="160" height="30" as="geometry" />
        </mxCell>
        <mxCell id="TKxMJ3lpff_DdQ6PI0vP-4" value="present sensor: sensor" style="text;html=1;strokeColor=none;fillColor=none;align=left;verticalAlign=middle;whiteSpace=wrap;rounded=0;" parent="1" vertex="1">
          <mxGeometry x="90" y="150" width="160" height="30" as="geometry" />
        </mxCell>
        <mxCell id="TKxMJ3lpff_DdQ6PI0vP-5" value="&lt;i&gt;air quality: sensor&lt;/i&gt;" style="text;html=1;strokeColor=none;fillColor=none;align=left;verticalAlign=middle;whiteSpace=wrap;rounded=0;" parent="1" vertex="1">
          <mxGeometry x="90" y="170" width="160" height="30" as="geometry" />
        </mxCell>
        <mxCell id="TKxMJ3lpff_DdQ6PI0vP-6" value="&lt;i&gt;fan / windows opener: actuator&lt;br&gt;&lt;/i&gt;" style="text;html=1;strokeColor=none;fillColor=none;align=left;verticalAlign=middle;whiteSpace=wrap;rounded=0;" parent="1" vertex="1">
          <mxGeometry x="90" y="190" width="180" height="30" as="geometry" />
        </mxCell>
        <mxCell id="TKxMJ3lpff_DdQ6PI0vP-7" value="&lt;i&gt;acoustic signal: actuator (before watering)&lt;br&gt;&lt;/i&gt;" style="text;html=1;strokeColor=none;fillColor=none;align=left;verticalAlign=middle;whiteSpace=wrap;rounded=0;" parent="1" vertex="1">
          <mxGeometry x="90" y="210" width="230" height="30" as="geometry" />
        </mxCell>
        <mxCell id="TKxMJ3lpff_DdQ6PI0vP-8" value="&lt;i&gt;temperature: sensor&lt;br&gt;&lt;/i&gt;" style="text;html=1;strokeColor=none;fillColor=none;align=left;verticalAlign=middle;whiteSpace=wrap;rounded=0;" parent="1" vertex="1">
          <mxGeometry x="90" y="230" width="230" height="30" as="geometry" />
        </mxCell>
        <mxCell id="TKxMJ3lpff_DdQ6PI0vP-9" value="&lt;i&gt;led: actuator (to simulate hating, cooling)&lt;br&gt;&lt;/i&gt;" style="text;html=1;strokeColor=none;fillColor=none;align=left;verticalAlign=middle;whiteSpace=wrap;rounded=0;" parent="1" vertex="1">
          <mxGeometry x="90" y="250" width="230" height="30" as="geometry" />
        </mxCell>
        <mxCell id="TKxMJ3lpff_DdQ6PI0vP-10" value="Sensor / Actuator" style="rounded=0;whiteSpace=wrap;html=1;" parent="1" vertex="1">
          <mxGeometry x="70" y="330" width="120" height="60" as="geometry" />
        </mxCell>
        <mxCell id="TKxMJ3lpff_DdQ6PI0vP-12" value="Sensor / Actuator" style="rounded=0;whiteSpace=wrap;html=1;" parent="1" vertex="1">
          <mxGeometry x="100" y="420" width="120" height="60" as="geometry" />
        </mxCell>
        <mxCell id="TKxMJ3lpff_DdQ6PI0vP-13" value="Sensor / Actuator" style="rounded=0;whiteSpace=wrap;html=1;" parent="1" vertex="1">
          <mxGeometry x="190" y="500" width="120" height="60" as="geometry" />
        </mxCell>
        <mxCell id="TKxMJ3lpff_DdQ6PI0vP-14" value="Sensor / Actuator" style="rounded=0;whiteSpace=wrap;html=1;" parent="1" vertex="1">
          <mxGeometry x="20" y="510" width="120" height="60" as="geometry" />
        </mxCell>
        <mxCell id="TKxMJ3lpff_DdQ6PI0vP-15" value="" style="endArrow=none;html=1;rounded=0;" parent="1" edge="1">
          <mxGeometry width="50" height="50" relative="1" as="geometry">
            <mxPoint x="290" y="420" as="sourcePoint" />
            <mxPoint x="390" y="420" as="targetPoint" />
          </mxGeometry>
        </mxCell>
        <mxCell id="TKxMJ3lpff_DdQ6PI0vP-16" value="Arduino" style="rounded=0;whiteSpace=wrap;html=1;" parent="1" vertex="1">
          <mxGeometry x="425" y="400" width="105" height="50" as="geometry" />
        </mxCell>
        <mxCell id="TKxMJ3lpff_DdQ6PI0vP-17" value="Backend" style="rounded=0;whiteSpace=wrap;html=1;" parent="1" vertex="1">
          <mxGeometry x="680" y="400" width="105" height="50" as="geometry" />
        </mxCell>
        <mxCell id="TKxMJ3lpff_DdQ6PI0vP-18" value="" style="endArrow=none;html=1;rounded=0;" parent="1" edge="1">
          <mxGeometry width="50" height="50" relative="1" as="geometry">
            <mxPoint x="570" y="419" as="sourcePoint" />
            <mxPoint x="660" y="419" as="targetPoint" />
          </mxGeometry>
        </mxCell>
        <mxCell id="TKxMJ3lpff_DdQ6PI0vP-19" value="DB" style="shape=cylinder3;whiteSpace=wrap;html=1;boundedLbl=1;backgroundOutline=1;size=15;" parent="1" vertex="1">
          <mxGeometry x="700" y="230" width="60" height="80" as="geometry" />
        </mxCell>
        <mxCell id="TKxMJ3lpff_DdQ6PI0vP-20" value="" style="endArrow=none;html=1;rounded=0;" parent="1" edge="1">
          <mxGeometry width="50" height="50" relative="1" as="geometry">
            <mxPoint x="730" y="390" as="sourcePoint" />
            <mxPoint x="730" y="330" as="targetPoint" />
          </mxGeometry>
        </mxCell>
        <mxCell id="TKxMJ3lpff_DdQ6PI0vP-21" value="" style="endArrow=none;html=1;rounded=0;" parent="1" edge="1">
          <mxGeometry width="50" height="50" relative="1" as="geometry">
            <mxPoint x="810" y="420" as="sourcePoint" />
            <mxPoint x="890" y="420" as="targetPoint" />
          </mxGeometry>
        </mxCell>
        <mxCell id="TKxMJ3lpff_DdQ6PI0vP-22" value="Frontend" style="rounded=0;whiteSpace=wrap;html=1;" parent="1" vertex="1">
          <mxGeometry x="920" y="400" width="105" height="50" as="geometry" />
        </mxCell>
        <mxCell id="TKxMJ3lpff_DdQ6PI0vP-23" value="User" style="shape=umlActor;verticalLabelPosition=bottom;verticalAlign=top;html=1;outlineConnect=0;" parent="1" vertex="1">
          <mxGeometry x="957.5" y="530" width="30" height="60" as="geometry" />
        </mxCell>
        <mxCell id="TKxMJ3lpff_DdQ6PI0vP-24" value="" style="endArrow=none;html=1;rounded=0;" parent="1" edge="1">
          <mxGeometry width="50" height="50" relative="1" as="geometry">
            <mxPoint x="970" y="510" as="sourcePoint" />
            <mxPoint x="970" y="470" as="targetPoint" />
          </mxGeometry>
        </mxCell>
        <mxCell id="TKxMJ3lpff_DdQ6PI0vP-25" value="home" style="swimlane;whiteSpace=wrap;html=1;" parent="1" vertex="1">
          <mxGeometry x="867.5" y="260" width="120" height="70" as="geometry" />
        </mxCell>
        <mxCell id="TKxMJ3lpff_DdQ6PI0vP-27" value="setup device" style="swimlane;whiteSpace=wrap;html=1;" parent="1" vertex="1">
          <mxGeometry x="1050" y="270" width="120" height="70" as="geometry" />
        </mxCell>
        <mxCell id="TKxMJ3lpff_DdQ6PI0vP-28" value="control" style="swimlane;whiteSpace=wrap;html=1;" parent="1" vertex="1">
          <mxGeometry x="1145" y="380" width="120" height="70" as="geometry" />
        </mxCell>
        <mxCell id="TKxMJ3lpff_DdQ6PI0vP-29" value="" style="endArrow=none;html=1;rounded=0;" parent="1" edge="1">
          <mxGeometry width="50" height="50" relative="1" as="geometry">
            <mxPoint x="960" y="380" as="sourcePoint" />
            <mxPoint x="920" y="330" as="targetPoint" />
          </mxGeometry>
        </mxCell>
        <mxCell id="TKxMJ3lpff_DdQ6PI0vP-30" value="" style="endArrow=none;html=1;rounded=0;" parent="1" edge="1">
          <mxGeometry width="50" height="50" relative="1" as="geometry">
            <mxPoint x="1025" y="380" as="sourcePoint" />
            <mxPoint x="1055" y="340" as="targetPoint" />
          </mxGeometry>
        </mxCell>
        <mxCell id="TKxMJ3lpff_DdQ6PI0vP-31" value="" style="endArrow=none;html=1;rounded=0;" parent="1" edge="1">
          <mxGeometry width="50" height="50" relative="1" as="geometry">
            <mxPoint x="1040" y="420" as="sourcePoint" />
            <mxPoint x="1130" y="410" as="targetPoint" />
          </mxGeometry>
        </mxCell>
        <mxCell id="TKxMJ3lpff_DdQ6PI0vP-36" value="Smart Greenhouse" style="swimlane;whiteSpace=wrap;html=1;" parent="1" vertex="1">
          <mxGeometry x="10" y="290" width="540" height="320" as="geometry" />
        </mxCell>
        <mxCell id="Kl8w3iTI7DVASsKQzPM8-8" value="update_service" style="rounded=1;whiteSpace=wrap;html=1;" parent="1" vertex="1">
          <mxGeometry x="580" y="465" width="120" height="30" as="geometry" />
        </mxCell>
        <mxCell id="Kl8w3iTI7DVASsKQzPM8-9" value="command_service" style="rounded=1;whiteSpace=wrap;html=1;" parent="1" vertex="1">
          <mxGeometry x="580" y="515" width="120" height="30" as="geometry" />
        </mxCell>
        <mxCell id="Kl8w3iTI7DVASsKQzPM8-10" value="register_service" style="rounded=1;whiteSpace=wrap;html=1;" parent="1" vertex="1">
          <mxGeometry x="580" y="565" width="120" height="30" as="geometry" />
        </mxCell>
        <mxCell id="Kl8w3iTI7DVASsKQzPM8-11" value="frontend_service_1" style="rounded=1;whiteSpace=wrap;html=1;" parent="1" vertex="1">
          <mxGeometry x="760" y="465" width="120" height="30" as="geometry" />
        </mxCell>
        <mxCell id="Kl8w3iTI7DVASsKQzPM8-12" value="..." style="rounded=1;whiteSpace=wrap;html=1;" parent="1" vertex="1">
          <mxGeometry x="760" y="515" width="120" height="30" as="geometry" />
        </mxCell>
        <mxCell id="Kl8w3iTI7DVASsKQzPM8-13" value="frontend_service_n" style="rounded=1;whiteSpace=wrap;html=1;" parent="1" vertex="1">
          <mxGeometry x="760" y="565" width="120" height="30" as="geometry" />
        </mxCell>
        <mxCell id="-iqD5v2qwuzqoVuo-1Gy-1" value="Create / Add to new group" style="rounded=1;whiteSpace=wrap;html=1;" vertex="1" parent="1">
          <mxGeometry x="1050" y="180" width="190" height="30" as="geometry" />
        </mxCell>
        <mxCell id="-iqD5v2qwuzqoVuo-1Gy-2" value="Delete group / device from group" style="rounded=1;whiteSpace=wrap;html=1;" vertex="1" parent="1">
          <mxGeometry x="1050" y="220" width="190" height="30" as="geometry" />
        </mxCell>
        <mxCell id="-iqD5v2qwuzqoVuo-1Gy-3" value="show stats" style="rounded=1;whiteSpace=wrap;html=1;" vertex="1" parent="1">
          <mxGeometry x="867.5" y="222.5" width="100" height="25" as="geometry" />
        </mxCell>
        <mxCell id="-iqD5v2qwuzqoVuo-1Gy-4" value="manual control actuators" style="rounded=1;whiteSpace=wrap;html=1;" vertex="1" parent="1">
          <mxGeometry x="1145" y="470" width="140" height="30" as="geometry" />
        </mxCell>
      </root>
    </mxGraphModel>
  </diagram>
</mxfile>
